PathFileType  4	(X/Y/Z) C:\Users\antoi\Documents\MyRepositories\mobilecap\ResultsAnalysis
DataRate	CameraRate	NumFrames	NumMarkers	Units	OrigDataRate	OrigDataStartFrame	OrigNumFrames
100.0	100.0	6	51	mm	100.0	195	311
Frame#	Time	r_knee			r_shank_antsup			r_ankle			r_calc			r_5meta			r_toe			L_knee			L_shank_antsup			L_ankle			L_calc			L_5meta			L_toe			r_sh2			r_sh3			r_sh4			L_sh2			L_sh3			r_thigh1			r_thigh2			r_thigh3			r_thigh4			r_thigh5			L_thigh1			L_thigh2			L_thigh3			L_thigh4			r.ASIS			r.PSIS			L.ASIS			L.PSIS			C7			R_Shoulder			L_Shoulder			R_Sternum			L_Sternum			R_humerus			R_elbow_med			R_elbow_lat			R_forearm			R_wrist_radius			R_wrist_ulna			L_humerus			L_elbow_med			L_elbow_lat			L_forearm			L_wrist_radius			L_wrist_ulna			R_HJC			L_HJC			R_HJC_reg			L_HJC_reg			
		X1	Y1	Z1	X2	Y2	Z2	X3	Y3	Z3	X4	Y4	Z4	X5	Y5	Z5	X6	Y6	Z6	X7	Y7	Z7	X8	Y8	Z8	X9	Y9	Z9	X10	Y10	Z10	X11	Y11	Z11	X12	Y12	Z12	X13	Y13	Z13	X14	Y14	Z14	X15	Y15	Z15	X16	Y16	Z16	X17	Y17	Z17	X18	Y18	Z18	X19	Y19	Z19	X20	Y20	Z20	X21	Y21	Z21	X22	Y22	Z22	X23	Y23	Z23	X24	Y24	Z24	X25	Y25	Z25	X26	Y26	Z26	X27	Y27	Z27	X28	Y28	Z28	X29	Y29	Z29	X30	Y30	Z30	X31	Y31	Z31	X32	Y32	Z32	X33	Y33	Z33	X34	Y34	Z34	X35	Y35	Z35	X36	Y36	Z36	X37	Y37	Z37	X38	Y38	Z38	X39	Y39	Z39	X40	Y40	Z40	X41	Y41	Z41	X42	Y42	Z42	X43	Y43	Z43	X44	Y44	Z44	X45	Y45	Z45	X46	Y46	Z46	X47	Y47	Z47	X48	Y48	Z48	X49	Y49	Z49	X50	Y50	Z50	X51	Y51	Z51	

195	1.94000000	-139.29523	431.75356	-425.79555	-100.93098	358.75674	-427.87432	-299.95466	93.62713	-450.90820	-364.33092	72.70102	-498.32542	-207.21915	41.33388	-424.87518	-161.15849	54.83625	-477.14793	-111.19037	441.24182	-775.43988	-88.84641	345.47585	-771.14513	-272.94220	106.52068	-798.47571	-345.75663	76.36778	-758.70526	-185.12921	42.57224	-819.84153	-135.93344	54.45906	-764.39975	-161.69072	263.02725	-426.13005	-159.76727	396.06470	-396.98857	-229.68381	303.95133	-397.39592	-150.30712	397.25402	-811.48486	-209.18162	291.20952	-829.06990	-273.32885	634.98124	-383.49168	-192.69354	557.27486	-391.63053	-269.88467	483.09832	-430.51363	-352.55360	565.36184	-411.54733	-226.50228	496.76020	-400.21131	-265.74443	669.48011	-787.77939	-168.44292	572.48380	-780.78349	-349.43716	594.41313	-785.17581	-250.95613	495.04417	-760.07057	-270.19773	742.05731	-469.01730	-421.95184	873.54812	-549.50040	-261.68689	740.30903	-679.89108	-416.37861	871.20791	-630.79859	-3.46336	1086.26956	-522.07153	5.52895	1021.19186	-386.18055	44.17729	1037.70384	-655.84499	36.95692	953.25947	-493.63469	42.47841	955.55102	-537.16027	-81.59528	982.05519	-309.11760	-297.34192	1056.99781	-290.37826	-272.37852	1027.72390	-232.11287	-309.01588	938.15634	-223.08595	-398.76500	829.59662	-232.73489	-418.14805	847.83145	-206.23767	-16.42784	1020.56248	-753.72818	-229.64393	1062.98338	-825.12601	-184.60600	1038.40595	-873.56754	-242.73065	945.60473	-898.08587	-331.36552	854.97828	-905.44070	-348.11981	879.07427	-932.49995	-384.30934	710.94829	-476.41188	-371.84738	708.81189	-683.53036	-363.63420	724.73626	-503.51758	-354.11397	720.73963	-642.43019	
196	1.95000000	-139.69388	432.21088	-425.36120	-101.31924	359.30825	-427.40862	-299.96576	93.73739	-450.58689	-364.38913	72.87912	-498.04414	-207.17575	41.24903	-424.83292	-161.22230	54.88827	-477.11360	-110.63412	443.26359	-775.07780	-88.41498	347.38573	-770.31319	-271.99638	108.09799	-798.68094	-344.87907	78.69238	-758.89609	-184.73356	42.83983	-819.74484	-135.69510	54.33346	-764.44110	-161.84778	263.41899	-425.77539	-159.94329	397.09271	-396.58644	-229.90423	304.42772	-397.01573	-150.01035	398.99572	-810.39940	-208.64916	292.83396	-828.53455	-272.55031	636.22301	-382.63098	-192.41785	558.14018	-391.36358	-270.03205	484.15888	-429.91600	-352.21738	567.03315	-410.87961	-226.48947	497.75235	-399.58321	-264.52440	672.03229	-787.26112	-167.53623	574.63140	-780.22590	-348.55276	596.89845	-784.58960	-250.25472	497.23755	-759.60014	-269.55275	743.69410	-468.07837	-420.68208	875.31312	-548.44375	-260.08032	742.61432	-679.25364	-415.23418	873.34331	-629.54013	-2.17482	1087.98912	-522.25158	7.03661	1024.67802	-386.30307	45.63895	1039.17238	-655.99245	38.18315	955.42750	-492.49748	43.79487	957.18437	-537.20033	-80.51201	990.94942	-308.79044	-294.08501	1073.50834	-297.02285	-271.59312	1045.55211	-237.29660	-310.24220	957.54723	-226.02171	-402.14286	850.60152	-233.97939	-421.82906	869.85206	-208.52371	-16.42103	1026.97084	-752.61180	-229.87107	1078.91761	-816.89174	-187.37412	1054.03092	-867.18594	-247.99260	963.35280	-891.67959	-337.93732	873.59174	-896.78594	-355.65046	899.24633	-922.12624	-383.40736	712.43245	-475.97012	-370.38939	711.20831	-683.06776	-362.49092	726.42841	-502.56589	-353.14230	723.04664	-641.72660	
197	1.96000000	-140.03828	432.63585	-425.08775	-101.72183	359.92293	-427.22321	-299.91805	93.87874	-450.27876	-364.42234	73.04850	-497.80454	-207.10311	41.23021	-424.82581	-161.22248	54.94879	-477.03058	-109.98884	445.45387	-774.50107	-87.71898	349.49190	-769.96855	-270.89052	109.80848	-798.71707	-343.88706	81.35111	-759.00038	-184.21683	43.24444	-819.65871	-135.36526	54.16623	-764.34580	-161.96695	264.04979	-425.23421	-160.12673	398.35162	-396.20075	-230.08413	304.83448	-396.68034	-149.45057	400.95095	-809.53283	-208.04484	294.45291	-827.87724	-271.52051	637.34124	-382.18733	-191.84717	559.21129	-391.12249	-269.89181	485.22089	-429.38491	-351.75736	568.62010	-410.13181	-226.30548	498.70665	-399.08189	-263.46569	674.60683	-786.71967	-166.65321	576.96220	-779.75371	-347.53358	599.51782	-784.13148	-249.57689	499.53808	-759.37747	-268.93883	745.20480	-467.05696	-419.52438	876.91142	-547.40550	-259.45344	744.25843	-677.57397	-414.12653	875.17632	-628.25906	-1.06905	1089.65122	-522.52143	8.64956	1027.81415	-386.65643	46.95882	1040.05862	-655.94270	39.38946	957.48201	-491.85722	45.07396	958.89999	-537.26815	-79.28850	999.02872	-309.40373	-290.44978	1087.57991	-304.45720	-270.37867	1061.74339	-243.40546	-310.24112	975.19122	-229.60043	-404.46610	868.64583	-236.02675	-424.46172	889.72783	-211.99839	-15.98979	1032.74854	-750.99840	-229.51167	1093.09633	-807.82459	-189.60216	1068.87105	-859.94282	-251.98451	980.02519	-884.94272	-342.71705	890.88788	-888.27417	-361.68187	917.77150	-911.57797	-382.82444	714.13250	-474.78476	-369.62827	712.95061	-681.86926	-361.67278	728.02222	-501.43432	-352.40830	725.04361	-640.17798	
198	1.97000000	-140.28385	433.15493	-424.82519	-102.15516	360.54080	-427.24928	-299.89656	93.95318	-449.90661	-364.43121	73.23075	-497.53303	-207.03464	41.23656	-424.77988	-161.23797	54.97998	-476.94973	-109.25989	447.75607	-773.88358	-86.86482	351.58365	-770.23368	-269.75036	111.56874	-798.52290	-342.83742	84.20388	-758.88040	-183.69070	43.73288	-819.58554	-134.71707	54.22478	-764.16969	-162.13768	264.62133	-424.75776	-160.51404	398.89404	-395.96736	-230.18334	305.12823	-396.38584	-148.70984	403.18066	-809.20339	-207.23431	296.59666	-827.74567	-270.41624	638.71467	-381.27654	-191.27442	560.21961	-390.59310	-269.75766	486.53121	-428.82387	-351.22103	570.05680	-409.44037	-226.03517	499.63167	-398.65479	-262.57097	677.23188	-786.18195	-165.86282	579.41679	-779.22328	-346.52829	602.15792	-783.62543	-248.88831	501.97769	-759.29752	-268.28677	746.72230	-465.89809	-418.64914	878.42489	-546.29728	-258.87963	746.06980	-676.41567	-413.34830	876.95621	-627.05175	-0.05456	1091.14077	-522.81363	10.27131	1030.48831	-386.96374	48.08328	1040.25626	-655.39043	40.60746	959.10785	-491.65748	46.41171	960.39007	-537.40905	-78.04950	1006.07687	-310.28967	-286.60577	1098.80371	-312.61456	-268.98413	1075.65187	-250.66737	-309.48470	990.65590	-233.70176	-406.05253	883.61617	-238.38602	-426.46255	907.04614	-216.33470	-15.30954	1037.78201	-749.22691	-228.72423	1105.18830	-798.25260	-191.25536	1082.53932	-851.99342	-254.95825	995.16489	-877.81219	-345.97881	906.24379	-880.35875	-366.25875	934.56602	-901.83226	-382.17992	715.70163	-473.73734	-368.93775	714.72892	-680.81875	-360.94711	729.41957	-500.22186	-351.83809	726.89573	-638.98175	
199	1.98000000	-140.43845	433.71586	-424.63830	-102.54609	361.10863	-427.24337	-299.98117	93.94710	-449.55574	-364.44137	73.42549	-497.17069	-207.00541	41.20116	-424.68105	-161.30964	54.97194	-476.91031	-108.48221	450.17720	-773.52987	-86.04842	353.67732	-770.43470	-268.72782	113.43803	-798.34104	-341.82254	87.01777	-758.48184	-183.27032	44.29158	-819.36816	-133.91247	54.56502	-764.06542	-162.34340	265.03689	-424.45777	-161.09530	398.66788	-395.96059	-230.38905	305.56706	-396.02566	-147.88187	405.46091	-809.17661	-206.32614	298.94951	-827.58732	-269.30390	640.29339	-380.10316	-190.84121	561.02920	-390.21115	-269.68530	487.82705	-428.17841	-350.68548	571.47449	-408.86197	-225.74282	500.44247	-398.31963	-261.84619	679.88901	-785.72702	-165.18473	581.95938	-778.54091	-345.70912	604.77521	-783.01646	-248.15870	504.48809	-759.17779	-267.64672	748.10958	-464.86857	-417.87519	879.84399	-545.26997	-258.23069	747.94423	-675.63009	-412.92376	878.80259	-625.79699	0.97766	1092.43066	-523.03846	11.68668	1032.64966	-387.22603	49.14985	1040.31733	-654.68157	41.75452	960.41641	-491.86885	47.68195	961.63480	-537.48985	-77.00075	1011.77165	-311.17144	-283.04839	1107.03575	-321.17684	-267.69359	1087.12704	-258.66003	-308.55834	1003.39035	-238.16358	-406.47113	895.82902	-240.06586	-427.52645	920.91172	-220.39559	-14.67277	1042.10646	-747.53173	-227.59510	1114.95701	-788.48351	-192.44997	1094.42139	-843.59123	-257.21694	1008.36777	-870.74440	-348.35876	919.19416	-872.95983	-369.61266	949.14715	-892.68292	-381.52485	717.08105	-472.93084	-368.29405	716.58526	-680.01538	-360.05795	730.61004	-498.92264	-351.51686	728.81452	-637.88729	
200	1.99000000	-140.60608	434.18321	-424.51455	-102.86000	361.56129	-427.10514	-300.08413	93.96727	-449.24176	-364.45825	73.58791	-496.76814	-207.00843	41.13379	-424.58011	-161.39050	54.96916	-476.89199	-107.77745	452.56802	-773.41266	-85.30828	355.74428	-770.20097	-267.88498	115.39476	-798.32793	-340.88248	89.58927	-757.81244	-183.03453	44.88104	-818.88161	-133.37125	54.99319	-764.00721	-162.53503	265.39372	-424.20637	-161.63730	398.56804	-395.96255	-230.78533	306.08509	-395.51696	-147.02341	407.62467	-809.32889	-205.54368	301.08649	-827.19029	-268.31253	641.56731	-379.51577	-190.35894	561.65563	-390.19496	-269.52515	488.88503	-427.43740	-350.20151	572.84773	-408.20725	-225.50093	501.28816	-397.90447	-261.30290	682.39705	-785.22551	-164.61056	584.48297	-777.89235	-345.13141	607.29530	-782.39443	-247.50793	506.81291	-758.90751	-266.92200	749.20888	-464.02177	-416.98132	881.19913	-544.39928	-257.71586	749.56025	-674.73233	-412.48150	880.52097	-624.56100	2.11507	1093.59513	-523.18441	12.79186	1034.29490	-387.52969	50.18575	1040.64636	-654.31424	42.74729	961.58596	-492.26011	48.69305	962.54566	-537.71815	-76.42369	1015.98059	-312.05422	-280.36787	1112.33886	-329.73241	-266.89468	1096.12147	-266.63936	-308.04741	1012.79028	-242.83652	-405.93106	904.76874	-241.42582	-427.75994	930.61605	-223.93095	-14.29064	1045.63685	-746.00370	-226.27095	1122.11911	-778.81833	-193.57373	1103.84826	-834.99068	-259.11176	1019.10362	-864.22088	-350.23529	929.37143	-866.07386	-372.43568	960.41840	-883.06533	-380.89164	718.35632	-472.13046	-367.77806	718.25078	-679.22340	-359.08147	731.79485	-497.63458	-351.28124	730.62000	-636.61199	
